<svg width="375" height="258" viewBox="0 0 375 258" fill="none" xmlns="http://www.w3.org/2000/svg">
<path d="M376 236.748H-1V236.929H376V236.748Z" fill="#EBEBEB"/>
<path d="M338.225 248.383H313.252V248.563H338.225V248.383Z" fill="#EBEBEB"/>
<path d="M248.74 250.35H242.188V250.53H248.74V250.35Z" fill="#EBEBEB"/>
<path d="M312.498 241.672H298.029V241.853H312.498V241.672Z" fill="#EBEBEB"/>
<path d="M71.1201 242.887H38.5548V243.068H71.1201V242.887Z" fill="#EBEBEB"/>
<path d="M82.6111 242.887H77.8383V243.068H82.6111V242.887Z" fill="#EBEBEB"/>
<path d="M168.763 245.939H98.1284V246.119H168.763V245.939Z" fill="#EBEBEB"/>
<path d="M177.698 204.497H32.1081C30.9676 204.495 29.8744 204.059 29.0687 203.285C28.2629 202.511 27.8103 201.462 27.8103 200.368V4.09283C27.8203 3.00528 28.2772 1.96541 29.0819 1.19908C29.8866 0.432754 30.9741 0.00186302 32.1081 0H177.698C178.84 0 179.935 0.435017 180.742 1.20935C181.55 1.98369 182.003 3.03391 182.003 4.12898V200.368C182.003 201.463 181.55 202.513 180.742 203.287C179.935 204.062 178.84 204.497 177.698 204.497ZM32.1081 0.144623C31.0176 0.146539 29.9724 0.563353 29.202 1.30358C28.4315 2.0438 27.9988 3.04695 27.9988 4.09283V200.368C27.9988 201.414 28.4315 202.417 29.202 203.157C29.9724 203.897 31.0176 204.314 32.1081 204.316H177.698C178.789 204.314 179.835 203.898 180.607 203.158C181.378 202.417 181.813 201.414 181.815 200.368V4.09283C181.813 3.04629 181.378 2.04315 180.607 1.30314C179.835 0.563118 178.789 0.146535 177.698 0.144623H32.1081Z" fill="#EBEBEB"/>
<path d="M340.796 204.497H195.198C194.057 204.495 192.963 204.059 192.156 203.285C191.349 202.511 190.895 201.462 190.893 200.368V4.09283C190.905 3.00462 191.364 1.96476 192.169 1.19863C192.975 0.432501 194.064 0.00184271 195.198 0H340.796C341.928 0.00376345 343.014 0.435495 343.817 1.20162C344.62 1.96774 345.076 3.00653 345.086 4.09283V200.368C345.086 201.46 344.634 202.508 343.83 203.282C343.026 204.056 341.935 204.493 340.796 204.497ZM195.198 0.144623C194.107 0.146535 193.061 0.563118 192.289 1.30314C191.518 2.04315 191.083 3.04629 191.082 4.09283V200.368C191.083 201.414 191.518 202.417 192.289 203.158C193.061 203.898 194.107 204.314 195.198 204.316H340.796C341.887 204.314 342.933 203.898 343.705 203.158C344.476 202.417 344.911 201.414 344.913 200.368V4.09283C344.911 3.04629 344.476 2.04315 343.705 1.30314C342.933 0.563118 341.887 0.146535 340.796 0.144623H195.198Z" fill="#EBEBEB"/>
<path d="M147.711 70.9375H49.3597V75.7824H147.711V70.9375Z" fill="#E0E0E0"/>
<path d="M58.2192 53.0694H53.8837V70.9303H58.2192V53.0694Z" fill="#EBEBEB"/>
<path d="M79.1728 53.0694H74.8373V70.9303H79.1728V53.0694Z" fill="#EBEBEB"/>
<path d="M102.956 52.6251L98.684 53.3314L101.848 70.9328L106.12 70.2265L102.956 52.6251Z" fill="#EBEBEB"/>
<path d="M63.5876 55.4268H59.2521V70.9376H63.5876V55.4268Z" fill="#EBEBEB"/>
<path d="M73.548 55.4268H69.2125V70.9376H73.548V55.4268Z" fill="#EBEBEB"/>
<path d="M98.6863 55.4268H94.3508V70.9376H98.6863V55.4268Z" fill="#EBEBEB"/>
<path d="M84.8671 54.8832L80.6348 55.7852L84.1436 70.9266L88.3759 70.0246L84.8671 54.8832Z" fill="#EBEBEB"/>
<path d="M67.3275 52.1872H65.1635V70.9376H67.3275V52.1872Z" fill="#EBEBEB"/>
<path d="M93.0992 52.1872H90.9352V70.9376H93.0992V52.1872Z" fill="#EBEBEB"/>
<path d="M138.271 56.8007H117.159V70.7785H138.271V56.8007Z" fill="#EBEBEB"/>
<path d="M49.3521 111.96L147.704 111.96V107.115L49.3521 107.115V111.96Z" fill="#E0E0E0"/>
<path d="M138.844 107.115H143.18V89.2541H138.844V107.115Z" fill="#EBEBEB"/>
<path d="M117.891 107.115H122.226V89.2541H117.891V107.115Z" fill="#EBEBEB"/>
<path d="M90.9519 106.405L95.2244 107.112L98.3879 89.5101L94.1154 88.8039L90.9519 106.405Z" fill="#EBEBEB"/>
<path d="M133.476 107.115H137.811V91.6042H133.476V107.115Z" fill="#EBEBEB"/>
<path d="M123.516 107.115H127.851V91.6042H123.516V107.115Z" fill="#EBEBEB"/>
<path d="M98.3772 107.115H102.713V91.6042H98.3772V107.115Z" fill="#EBEBEB"/>
<path d="M108.7 106.209L112.933 107.111L116.442 91.9692L112.209 91.0671L108.7 106.209Z" fill="#EBEBEB"/>
<path d="M129.736 107.115H131.9V88.3646H129.736V107.115Z" fill="#EBEBEB"/>
<path d="M103.957 107.115H106.121V88.3646H103.957V107.115Z" fill="#EBEBEB"/>
<path d="M58.7998 106.956H79.9118V92.9781H58.7998V106.956Z" fill="#EBEBEB"/>
<path d="M323.205 29.4308H203.078C202.195 29.4308 201.479 30.1171 201.479 30.9638V32.6052C201.479 33.4519 202.195 34.1382 203.078 34.1382H323.205C324.088 34.1382 324.803 33.4519 324.803 32.6052V30.9638C324.803 30.1171 324.088 29.4308 323.205 29.4308Z" fill="#E0E0E0"/>
<path d="M317.475 33.1765H208.8V125.663H317.475V33.1765Z" fill="#E6E6E6"/>
<path d="M314.617 35.7146H211.522V123.175H314.617V35.7146Z" fill="#F0F0F0"/>
<path d="M235.718 35.7146L211.522 122.98V81.9723L224.295 35.7146H235.718Z" fill="white"/>
<path d="M244.284 35.7146L219.877 123.175H215.986L240.393 35.7146H244.284Z" fill="white"/>
<path d="M314.617 90.9028V104.873L309.678 123.175H305.78L314.617 90.9028Z" fill="white"/>
<path d="M247.481 34.1382H245.747V125.128H247.481V34.1382Z" fill="#E6E6E6"/>
<path d="M281.132 34.1382H279.398V125.128H281.132V34.1382Z" fill="#E6E6E6"/>
<path d="M299.763 30.9348C299.763 30.9348 302.266 62.224 316.645 78.1687C316.645 78.1687 306.172 118.439 306.18 132.482L325.64 129.033L318.628 78.4146L321.983 30.9421L299.763 30.9348Z" fill="#E0E0E0"/>
<path d="M226.512 30.9348C226.512 30.9348 224.016 62.224 209.637 78.1687C209.637 78.1687 220.11 118.439 220.103 132.482L200.635 129.033L207.654 78.4146L204.299 30.9421L226.512 30.9348Z" fill="#E0E0E0"/>
<path d="M102.378 36.2208C111.367 34.1861 116.934 25.5478 114.813 16.9268C112.691 8.30573 103.684 2.96648 94.6945 5.00123C85.7052 7.03599 80.1379 15.6742 82.2596 24.2953C84.3812 32.9163 93.3884 38.2556 102.378 36.2208Z" fill="#E0E0E0"/>
<path d="M100.817 34.0631C108.569 32.8563 113.833 25.851 112.575 18.4163C111.316 10.9815 104.012 5.93283 96.2596 7.13966C88.5073 8.34648 83.243 15.3518 84.5013 22.7866C85.7597 30.2213 93.0642 35.27 100.817 34.0631Z" fill="#F0F0F0"/>
<path d="M99.2066 11.2517V20.7823L105.789 17.2101" fill="#F0F0F0"/>
<path d="M99.2066 11.2517V20.7823L105.789 17.2101" stroke="#E0E0E0" stroke-width="2" stroke-linecap="round" stroke-linejoin="round"/>
<path d="M183.927 258C263.136 258 327.348 254.49 327.348 250.161C327.348 245.831 263.136 242.322 183.927 242.322C104.717 242.322 40.5049 245.831 40.5049 250.161C40.5049 254.49 104.717 258 183.927 258Z" fill="#F5F5F5"/>
<path d="M59.0345 228.423C58.9236 227.731 56.3346 210.993 61.5199 205.217C62.036 204.609 62.6898 204.115 63.4342 203.771C64.1786 203.427 64.9951 203.242 65.825 203.23C76.2993 203.001 77.7269 210.847 77.7417 210.951L76.5064 211.131C76.462 210.847 75.2193 204.206 65.8546 204.4C65.2017 204.41 64.5594 204.556 63.9746 204.828C63.3897 205.1 62.8771 205.491 62.4742 205.972C57.6513 211.346 60.255 228.084 60.255 228.25L59.0345 228.423Z" fill="#407BFF"/>
<path d="M58.4058 227.661L57.1557 227.627C57.1557 227.467 57.5699 212.219 49.5441 209.061C41.6736 205.979 38.1304 212.322 37.9899 212.592L36.8729 212.066C36.8729 211.99 41.0671 204.449 50.0249 207.987C58.8422 211.45 58.428 226.997 58.4058 227.661Z" fill="#407BFF"/>
<path d="M58.4428 228.859C58.4428 228.617 58.3614 204.49 53.3388 197.433C48.5159 190.661 40.7638 193.846 40.4014 193.971L39.891 192.911C39.9797 192.87 48.9598 189.158 54.3818 196.769C59.6115 204.13 59.6559 227.834 59.6559 228.859H58.4428Z" fill="#407BFF"/>
<path d="M67.3267 203.811C67.3267 203.811 62.7553 205.39 64.0942 209.137C65.433 212.883 79.9239 218.97 79.9239 218.97C79.9239 218.97 85.9821 213.77 80.4195 205.328C74.8569 196.886 67.4524 201.145 67.3267 203.811Z" fill="#407BFF"/>
<path d="M53.1169 196.159C53.1169 196.159 56.3568 195.834 56.0757 193.985C55.7946 192.136 43.4563 187.371 36.1702 195.072C36.1702 195.072 40.8378 202.579 47.5839 202.69C54.33 202.8 53.1169 196.159 53.1169 196.159Z" fill="#407BFF"/>
<path d="M49.7808 208.527C49.7808 208.527 52 206.831 49.6033 206.007C47.2067 205.183 35.327 205.411 35.2086 216.394C35.2086 216.394 49.0189 218.541 50.7424 214.351C52.466 210.162 49.7808 208.527 49.7808 208.527Z" fill="#407BFF"/>
<path opacity="0.2" d="M67.3267 203.811C67.3267 203.811 62.7553 205.39 64.0942 209.137C65.433 212.883 79.9239 218.97 79.9239 218.97C79.9239 218.97 85.9821 213.77 80.4195 205.328C74.8569 196.886 67.4524 201.145 67.3267 203.811Z" fill="white"/>
<path opacity="0.2" d="M53.1169 196.159C53.1169 196.159 56.3568 195.834 56.0757 193.985C55.7946 192.136 43.4563 187.371 36.1702 195.072C36.1702 195.072 40.8378 202.579 47.5839 202.69C54.33 202.8 53.1169 196.159 53.1169 196.159Z" fill="white"/>
<path opacity="0.2" d="M49.7808 208.527C49.7808 208.527 52 206.831 49.6033 206.007C47.2067 205.183 35.327 205.411 35.2086 216.394C35.2086 216.394 49.0189 218.541 50.7424 214.351C52.466 210.162 49.7808 208.527 49.7808 208.527Z" fill="white"/>
<path d="M69.7825 250.826H48.3458L46.0379 228.859H72.0904L69.7825 250.826Z" fill="#407BFF"/>
<path opacity="0.5" d="M69.7825 250.826H48.3458L46.0379 228.859H72.0904L69.7825 250.826Z" fill="white"/>
<path d="M73.2369 226.436H44.8914V231.283H73.2369V226.436Z" fill="#407BFF"/>
<path opacity="0.2" d="M73.2369 226.436H44.8914V231.283H73.2369V226.436Z" fill="white"/>
<path d="M289.379 142.656H216.548C215.689 142.655 214.839 142.813 214.046 143.12C213.252 143.427 212.532 143.877 211.924 144.445C211.317 145.013 210.835 145.687 210.506 146.429C210.178 147.172 210.009 147.967 210.009 148.771L201.132 201.727H287.027L295.903 148.771C295.903 147.15 295.216 145.596 293.993 144.45C292.77 143.303 291.11 142.658 289.379 142.656Z" fill="#407BFF"/>
<path opacity="0.4" d="M289.379 142.656H216.548C215.689 142.655 214.839 142.813 214.046 143.12C213.252 143.427 212.532 143.877 211.924 144.445C211.317 145.013 210.835 145.687 210.506 146.429C210.178 147.172 210.009 147.967 210.009 148.771L201.132 201.727H287.027L295.903 148.771C295.903 147.15 295.216 145.596 293.993 144.45C292.77 143.303 291.11 142.658 289.379 142.656Z" fill="white"/>
<path opacity="0.2" d="M273.964 202.53H287.027L295.903 148.792C295.903 147.17 295.215 145.615 293.99 144.468C292.765 143.321 291.104 142.677 289.372 142.677C287.639 142.677 285.978 143.321 284.753 144.468C283.528 145.615 282.84 147.17 282.84 148.792L273.964 202.53Z" fill="black"/>
<path d="M198.41 177.005H167.446H167.113C164.999 177.005 162.972 177.79 161.477 179.189C159.982 180.587 159.141 182.484 159.139 184.463V250.826H205.911V184.449C205.94 182.539 205.173 180.693 203.772 179.303C202.372 177.913 200.449 177.089 198.41 177.005Z" fill="#407BFF"/>
<path opacity="0.5" d="M198.41 177.005H167.446H167.113C164.999 177.005 162.972 177.79 161.477 179.189C159.982 180.587 159.141 182.484 159.139 184.463V250.826H205.911V184.449C205.94 182.539 205.173 180.693 203.772 179.303C202.372 177.913 200.449 177.089 198.41 177.005Z" fill="white"/>
<path opacity="0.6" d="M167.113 176.991C164.999 176.991 162.972 177.776 161.477 179.175C159.982 180.573 159.141 182.47 159.139 184.449V250.826H175.087V184.449C175.085 182.47 174.244 180.573 172.749 179.175C171.254 177.776 169.227 176.991 167.113 176.991Z" fill="white"/>
<path d="M241.254 195.771H180.295V250.826H241.254V195.771Z" fill="#407BFF"/>
<path opacity="0.4" d="M241.254 195.771H180.295V250.826H241.254V195.771Z" fill="white"/>
<path d="M184.74 191.132H254.273V206.851H184.74C182.512 206.851 180.374 206.023 178.798 204.547C177.222 203.072 176.337 201.071 176.337 198.985C176.341 196.901 177.228 194.903 178.804 193.431C180.379 191.959 182.514 191.132 184.74 191.132Z" fill="#407BFF"/>
<path opacity="0.6" d="M184.74 191.132H254.273V206.851H184.74C182.512 206.851 180.374 206.023 178.798 204.547C177.222 203.072 176.337 201.071 176.337 198.985C176.341 196.901 177.228 194.903 178.804 193.431C180.379 191.959 182.514 191.132 184.74 191.132Z" fill="white"/>
<path d="M280.517 177.005H249.553H249.22C247.107 177.005 245.08 177.79 243.585 179.189C242.089 180.587 241.248 182.484 241.246 184.463V250.826H288.018V184.449C288.047 182.539 287.28 180.693 285.88 179.303C284.479 177.913 282.556 177.089 280.517 177.005Z" fill="#407BFF"/>
<path opacity="0.5" d="M280.517 177.005H249.553H249.22C247.107 177.005 245.08 177.79 243.585 179.189C242.089 180.587 241.248 182.484 241.246 184.463V250.826H288.018V184.449C288.047 182.539 287.28 180.693 285.88 179.303C284.479 177.913 282.556 177.089 280.517 177.005Z" fill="white"/>
<path opacity="0.6" d="M249.22 176.991C247.107 176.991 245.08 177.776 243.585 179.175C242.089 180.573 241.248 182.47 241.246 184.449V250.826H257.194V184.449C257.192 182.47 256.352 180.573 254.856 179.175C253.361 177.776 251.334 176.991 249.22 176.991Z" fill="white"/>
<path d="M323.413 179.518H268.453V250.826H323.413V179.518Z" fill="#407BFF"/>
<path opacity="0.2" d="M323.42 179.518H306.555V250.826H323.42V179.518Z" fill="black"/>
<path opacity="0.2" d="M302.797 182.067H271.19V193.195H302.797V182.067Z" fill="white"/>
<path opacity="0.2" d="M302.797 195.917H271.19V207.045H302.797V195.917Z" fill="white"/>
<path opacity="0.2" d="M302.797 209.767H271.19V239.358H302.797V209.767Z" fill="white"/>
<path opacity="0.2" d="M286.184 185.384C286.874 185.384 287.434 184.86 287.434 184.214C287.434 183.567 286.874 183.043 286.184 183.043C285.493 183.043 284.933 183.567 284.933 184.214C284.933 184.86 285.493 185.384 286.184 185.384Z" fill="black"/>
<path opacity="0.2" d="M286.184 198.742C286.874 198.742 287.434 198.218 287.434 197.572C287.434 196.926 286.874 196.402 286.184 196.402C285.493 196.402 284.933 196.926 284.933 197.572C284.933 198.218 285.493 198.742 286.184 198.742Z" fill="black"/>
<path opacity="0.2" d="M273.964 224.559C273.977 224.72 273.954 224.881 273.898 225.034C273.841 225.186 273.752 225.326 273.634 225.444C273.517 225.562 273.376 225.657 273.218 225.721C273.06 225.786 272.889 225.819 272.717 225.819C272.545 225.819 272.375 225.786 272.217 225.721C272.059 225.657 271.917 225.562 271.8 225.444C271.683 225.326 271.593 225.186 271.537 225.034C271.48 224.881 271.458 224.72 271.471 224.559C271.495 224.265 271.637 223.99 271.868 223.79C272.099 223.59 272.402 223.479 272.717 223.479C273.032 223.479 273.335 223.59 273.566 223.79C273.798 223.99 273.939 224.265 273.964 224.559Z" fill="black"/>
<path d="M303.774 135.149H300.223V179.511H303.774V135.149Z" fill="#263238"/>
<path d="M283.032 150.398H320.972L317.902 125.26H286.102L283.032 150.398Z" fill="#407BFF"/>
<g opacity="0.6">
<path d="M283.032 150.398H320.972L317.902 125.26H286.102L283.032 150.398Z" fill="white"/>
</g>
<path opacity="0.2" d="M300.223 160.516V179.518H303.781V158.438L300.223 160.516Z" fill="white"/>
<path d="M308.219 177.565H295.785L293.566 179.518H310.438L308.219 177.565Z" fill="#407BFF"/>
<path opacity="0.2" d="M308.219 177.565H295.785L293.566 179.518H310.438L308.219 177.565Z" fill="white"/>
<path d="M101.819 74.2228C100.852 73.6634 99.6961 73.4633 98.5792 73.6619C95.4133 74.2228 94.6588 77.1244 95.0804 79.2781C95.2628 80.1513 95.6929 80.9624 96.3254 81.6265C96.9579 82.2905 97.7696 82.783 98.6754 83.0522C101.168 83.6409 103.365 81.4803 104.009 79.8598C104.417 78.8297 104.421 77.6973 104.02 76.6648C103.619 75.6322 102.839 74.7667 101.819 74.2228Z" fill="#263238"/>
<path d="M157.63 106.064L170.138 102.782C170.138 102.782 170.138 102.089 172.084 100.794C174.029 99.4993 179.237 98.4813 179.237 98.4813C179.237 98.4813 181.633 104.97 180.857 105.15C180.08 105.33 173.06 107.525 172.668 106.798L159.354 110.323L157.63 106.064Z" fill="#B97964"/>
<path d="M119.52 92.5327C126.821 94.7417 138.191 106.798 140.41 107.525C142.629 108.253 163.873 103.952 163.873 103.952L166.832 109.07C166.832 109.07 147.333 115.676 140.387 115.164C133.442 114.651 124.38 105.012 117.886 103.62L119.52 92.5327Z" fill="#407BFF"/>
<path opacity="0.5" d="M166.854 109.07C166.854 109.07 147.355 115.676 140.41 115.164C135.92 114.831 130.557 110.697 125.615 107.435C122.871 105.649 120.245 104.118 117.945 103.62L118.788 97.8165L119.528 92.5327C126.829 94.7417 138.198 106.791 140.417 107.525C142.636 108.259 163.88 103.952 163.88 103.952L166.854 109.07Z" fill="white"/>
<path opacity="0.2" d="M125.579 107.435C122.834 105.649 120.208 104.118 117.908 103.62L118.751 97.8165C120.844 99.7209 124.07 103.183 125.579 107.435Z" fill="black"/>
<path d="M130.276 241.234L125.342 242.045L123.322 235.757L121.481 229.988L127.161 228.132L128.811 235.064L130.276 241.234Z" fill="#E4897B"/>
<path d="M124.232 241.927C124.151 241.414 130.89 240.715 130.89 240.715C130.89 240.715 135.735 243.942 139.892 244.178C144.049 244.413 142.237 247.003 137.776 247.744L126.755 249.565C123.589 250.071 125.098 247.225 124.232 241.927Z" fill="#263238"/>
<path d="M134.218 241.768C133.399 241.732 132.587 241.607 131.799 241.394C131.78 241.398 131.76 241.398 131.74 241.394C131.72 241.383 131.704 241.366 131.696 241.345C131.696 241.345 131.696 241.345 131.696 241.304C131.692 241.278 131.692 241.253 131.696 241.227C131.696 241.158 131.999 239.607 132.835 239.108C132.961 239.03 133.104 238.979 133.254 238.958C133.403 238.938 133.556 238.949 133.701 238.991C134.033 239.074 134.211 239.226 134.24 239.441C134.285 239.773 133.871 240.182 133.375 240.542C133.863 240.377 134.391 240.343 134.899 240.445C134.994 240.475 135.083 240.523 135.158 240.586C135.233 240.649 135.293 240.726 135.335 240.812C135.408 240.914 135.447 241.035 135.447 241.158C135.447 241.281 135.408 241.402 135.335 241.504C135.179 241.618 134.998 241.7 134.806 241.746C134.614 241.791 134.414 241.798 134.218 241.768ZM132.391 241.193C133.442 241.421 134.729 241.56 135.002 241.269C135.002 241.269 135.099 241.165 135.002 240.93C134.982 240.884 134.95 240.844 134.911 240.812C134.871 240.779 134.824 240.756 134.773 240.743C134.226 240.563 133.109 240.909 132.391 241.193ZM133.375 239.261C133.24 239.26 133.108 239.299 132.998 239.372C132.531 239.778 132.217 240.315 132.103 240.902C133.027 240.39 133.893 239.746 133.856 239.462C133.856 239.372 133.678 239.316 133.575 239.288C133.509 239.272 133.442 239.263 133.375 239.261Z" fill="#407BFF"/>
<path opacity="0.2" d="M128.841 235.21L123.345 235.888L121.495 230.051L127.169 228.16L128.841 235.21Z" fill="black"/>
<path d="M97.3809 243.208H92.3731L91.552 236.692L90.8123 230.702L96.7522 229.801L97.0851 236.899L97.3809 243.208Z" fill="#E4897B"/>
<path d="M91.3005 242.91C91.3005 242.391 98.0911 242.8 98.0911 242.8C98.0911 242.8 102.263 246.768 106.309 247.647C110.355 248.527 108.099 250.812 103.572 250.812H92.3731C89.1554 250.826 91.1674 248.263 91.3005 242.91Z" fill="#263238"/>
<path d="M101.656 244.455C100.679 244.342 99.7303 244.07 98.8529 243.651C98.8267 243.644 98.8035 243.63 98.7864 243.61V243.575C98.7679 243.533 98.7679 243.486 98.7864 243.444C98.7864 243.381 99.3781 241.899 100.266 241.546C100.402 241.486 100.551 241.455 100.702 241.455C100.853 241.455 101.002 241.486 101.139 241.546C101.449 241.685 101.597 241.865 101.582 242.079C101.582 242.412 101.079 242.772 100.532 243.021C101.032 242.948 101.543 243.003 102.011 243.18C102.102 243.223 102.181 243.284 102.243 243.358C102.306 243.432 102.35 243.518 102.374 243.61C102.43 243.726 102.444 243.856 102.415 243.981C102.385 244.106 102.314 244.218 102.211 244.302C102.049 244.408 101.854 244.461 101.656 244.455ZM99.4373 243.547C100.436 243.942 101.656 244.295 101.997 244.046C101.997 244.046 102.115 243.963 102.041 243.714C102.03 243.665 102.006 243.62 101.973 243.582C101.94 243.543 101.897 243.512 101.849 243.492C101.39 243.194 100.229 243.354 99.4669 243.513L99.4373 243.547ZM100.65 241.802C100.557 241.802 100.464 241.819 100.377 241.851C99.8419 242.185 99.435 242.67 99.2154 243.236C100.221 242.883 101.19 242.384 101.205 242.1C101.205 242.017 101.057 241.934 100.961 241.892C100.879 241.831 100.783 241.788 100.68 241.768L100.65 241.802Z" fill="#407BFF"/>
<path opacity="0.2" d="M97.0851 237.045L91.552 236.816L90.8123 230.771L96.7522 229.829L97.0851 237.045Z" fill="black"/>
<path d="M129.299 231.546L121.162 232.883C113.026 213.818 107.175 197.904 103.069 184.698C100.85 177.572 99.134 171.236 97.81 165.613L98.1798 186.388V233.513H89.9839C69.9748 144.18 84.155 123.765 84.155 123.765L108.092 119.935C109.039 124.072 109.709 128.261 110.096 132.476L111.176 139.886L120.534 185.121L129.299 231.546Z" fill="#407BFF"/>
<path opacity="0.5" d="M129.299 231.546L121.162 232.883C113.026 213.818 107.175 197.904 103.069 184.698C100.85 177.572 99.134 171.236 97.81 165.613L98.1798 186.388V233.513H89.9839C69.9748 144.18 84.155 123.765 84.155 123.765L108.092 119.935C109.039 124.072 109.709 128.261 110.096 132.476L111.176 139.886L120.534 185.121L129.299 231.546Z" fill="white"/>
<path d="M119.935 231.948L129.98 228.832L129.839 232.827L121.532 235.314L119.935 231.948Z" fill="#407BFF"/>
<path d="M88.9187 232.384L99.3929 230.951L98.5127 234.863L89.8729 235.958L88.9187 232.384Z" fill="#407BFF"/>
<path opacity="0.2" d="M103.106 184.698C100.887 177.572 99.171 171.236 97.8469 165.613C97.9594 158.957 98.4755 152.312 99.3929 145.71C99.3929 145.71 102.899 171.381 103.106 184.698Z" fill="black"/>
<path d="M112.042 137.116L101.819 140.357L99.9252 134.533L97.854 139.9L79.2948 135.856C80.8851 125.191 87.2392 116.68 88.2378 113.453C89.6137 108.994 90.6936 100.462 89.7542 94.9426V94.8733C89.6606 94.3164 89.6907 93.7474 89.8426 93.2019C89.9945 92.6564 90.265 92.1461 90.6371 91.7029C91.0091 91.2596 91.4749 90.893 92.0052 90.6259C92.5355 90.3588 93.1189 90.1969 93.719 90.1504C95.5091 90.0189 97.314 89.9565 99.1189 89.9496C102.697 89.9103 106.274 90.107 109.822 90.5382C114.379 91.2307 119.535 92.505 119.535 92.505C119.535 92.505 120.274 92.7889 119.919 97.3525C119.616 101.362 118.795 113.82 110.037 124.36L112.042 137.116Z" fill="#407BFF"/>
<path opacity="0.6" d="M112.042 137.116L101.819 140.357L99.9252 134.533L97.854 139.9L79.2948 135.856C80.8851 125.191 87.2392 116.68 88.2378 113.453C89.6137 108.994 90.6936 100.462 89.7542 94.9426V94.8733C89.6606 94.3164 89.6907 93.7474 89.8426 93.2019C89.9945 92.6564 90.265 92.1461 90.6371 91.7029C91.0091 91.2596 91.4749 90.893 92.0052 90.6259C92.5355 90.3588 93.1189 90.1969 93.719 90.1504C95.5091 90.0189 97.314 89.9565 99.1189 89.9496C102.697 89.9103 106.274 90.107 109.822 90.5382C114.379 91.2307 119.535 92.505 119.535 92.505C119.535 92.505 120.274 92.7889 119.919 97.3525C119.616 101.362 118.795 113.82 110.037 124.36L112.042 137.116Z" fill="white"/>
<path d="M101.634 98.4813C101.634 98.4813 105.717 101.798 106.908 110.323L111.517 98.4051L114.683 99.3123C114.683 99.3123 112.242 88.5022 104.327 88.3014C96.4119 88.1006 97.0037 99.3123 97.0037 99.3123L101.634 98.4813Z" fill="#407BFF"/>
<path opacity="0.5" d="M101.634 98.4813C101.634 98.4813 105.717 101.798 106.908 110.323L111.517 98.4051L114.683 99.3123C114.683 99.3123 112.242 88.5022 104.327 88.3014C96.4119 88.1006 97.0037 99.3123 97.0037 99.3123L101.634 98.4813Z" fill="white"/>
<path d="M113.114 86.3278C113.114 86.3278 110.215 88.0798 109.712 89.2433C109.681 89.3151 109.656 89.3892 109.638 89.4649C109.499 90.126 109.403 90.7943 109.349 91.4662C111.568 95.9329 107.315 103.62 107.315 103.62C105.584 99.078 103.133 94.8059 100.044 90.9468C104.697 89.2433 105.584 80.8916 105.584 80.8916L107.803 82.519L113.114 86.3278Z" fill="#B97964"/>
<path opacity="0.2" d="M113.114 86.3278C113.114 86.3278 110.215 88.0798 109.712 89.2432C109.681 89.315 109.656 89.3892 109.638 89.4649C108.409 88.587 107.43 87.4403 106.785 86.1255C106.14 84.8107 105.85 83.3678 105.939 81.9235L107.826 82.519L113.114 86.3278Z" fill="black"/>
<path d="M116.332 66.7507C116.332 66.7507 122.198 65.2133 125.039 69.6454C127.879 74.0774 125.608 77.4361 123.633 79.0357" stroke="#263238" stroke-width="0.488465" stroke-linecap="round" stroke-linejoin="round"/>
<path d="M118.67 66.4806C118.67 66.4806 123.448 66.6191 124.772 70.4002C126.096 74.1813 125.112 78.4263 118.019 82.9969C114.549 85.2337 105.932 80.864 105.932 80.864L105.244 82.8168C104.092 82.0359 103.047 81.1267 102.13 80.1091C99.3411 77.0482 100.059 66.91 107.796 64.9225C115.874 62.8796 118.67 66.4806 118.67 66.4806Z" fill="#263238"/>
<path d="M114.113 67.7756C120.186 68.5443 121.702 71.8406 121.296 77.7615C120.785 85.1506 118.292 90.1366 110.94 87.602C100.917 84.1603 104.038 66.4806 114.113 67.7756Z" fill="#B97964"/>
<path d="M117.412 76.9374C117.776 77.8487 118.255 78.7159 118.84 79.5205C118.628 79.7343 118.356 79.8889 118.056 79.9672C117.756 80.0454 117.438 80.0442 117.138 79.9637L117.412 76.9374Z" fill="#A24E3F"/>
<path d="M113.765 76.0025C113.706 76.4665 113.388 76.8197 113.026 76.785C112.663 76.7504 112.471 76.3418 112.523 75.8709C112.574 75.4 112.9 75.0538 113.262 75.0884C113.625 75.123 113.817 75.5316 113.765 76.0025Z" fill="#263238"/>
<path d="M113.122 75.0954L114.254 74.8115C114.254 74.8115 113.61 75.6148 113.122 75.0954Z" fill="#263238"/>
<path d="M119.994 76.5566C119.942 77.0275 119.624 77.3806 119.291 77.346C118.958 77.3114 118.729 76.9028 118.788 76.4319C118.847 75.961 119.158 75.6078 119.528 75.6494C119.898 75.6909 120.053 76.0926 119.994 76.5566Z" fill="#263238"/>
<path d="M119.35 75.6563L120.489 75.3724C120.489 75.3724 119.846 76.1757 119.35 75.6563Z" fill="#263238"/>
<path d="M114.276 72.0691C113.804 71.9518 113.31 71.9375 112.832 72.0276C112.353 72.1177 111.903 72.3096 111.517 72.5885" stroke="#263238" stroke-width="0.707962" stroke-linecap="round" stroke-linejoin="round"/>
<path d="M118.721 72.3877C119.151 72.3419 119.585 72.388 119.993 72.5223C120.4 72.6567 120.77 72.8758 121.074 73.1633" stroke="#263238" stroke-width="0.707962" stroke-linecap="round" stroke-linejoin="round"/>
<path d="M106.08 76.5081C106.08 76.5081 109.601 72.2007 109.697 68.5373C109.697 68.5373 122.405 65.4695 121.333 76.9859C121.333 76.9859 123.988 66.9792 113.58 65.4211C103.173 63.8629 100.769 77.2837 105.518 82.2351C105.518 82.2351 103.898 79.2089 106.08 76.5081Z" fill="#263238"/>
<path d="M106.901 77.8377C106.935 77.1728 106.688 76.5221 106.213 76.0268C105.738 75.5315 105.074 75.2316 104.364 75.1923C102.455 75.1438 101.028 78.6548 105.584 80.116C106.257 80.3307 106.709 79.7559 106.901 77.8377Z" fill="#B97964"/>
<path d="M116.813 81.6603C116.558 82.3384 116.355 83.0327 116.206 83.7379H115.8C113.965 83.6548 113.144 83.0454 112.789 82.4083C112.62 82.0903 112.536 81.7385 112.545 81.3834C112.543 81.1823 112.571 80.982 112.626 80.7878C113.736 81.3061 114.952 81.5965 116.192 81.6396C116.613 81.6604 116.813 81.6603 116.813 81.6603Z" fill="#263238"/>
<path d="M116.192 81.6256L115.992 82.2351C114.268 82.152 113.033 81.8819 112.545 81.3694C112.543 81.1684 112.571 80.9681 112.626 80.7739C113.736 81.2922 114.952 81.5826 116.192 81.6256Z" fill="white"/>
<path d="M115.8 83.724C113.965 83.6409 113.144 83.0315 112.789 82.3944C113.484 82.4359 114.165 82.593 114.801 82.8584C115.222 83.0419 115.572 83.3447 115.8 83.724Z" fill="#DE5753"/>
<path d="M100.636 73.1632L101.079 64.313L99.4151 61.8685C103.734 60.3854 108.411 60.0639 112.915 60.9405L118.692 66.4806C118.692 66.4806 107.522 63.9114 100.636 73.1632Z" fill="#407BFF"/>
<path opacity="0.6" d="M118.67 66.4806C114.462 65.6904 110.091 66.3054 106.317 68.2188C104.046 69.4293 102.103 71.1114 100.636 73.1355L101.079 64.2853L99.4151 61.8408C103.737 60.3669 108.413 60.0551 112.915 60.9405L118.67 66.4806Z" fill="white"/>
<path opacity="0.1" d="M106.317 68.2465C104.046 69.4571 102.103 71.1391 100.636 73.1633L101.079 64.3131L99.4151 61.8685L106.317 68.2465Z" fill="black"/>
<path d="M129.188 130.316L137.325 132.075C139.356 132.188 141.367 132.509 143.324 133.03C146.401 133.875 149.73 135.108 149.242 135.856C148.754 136.604 143.428 140.613 141.726 140.357C140.025 140.101 135.239 137.587 135.809 136.341L127.864 134.533L129.188 130.316Z" fill="#B97964"/>
<path d="M91.9811 90.649C94.8955 89.8527 100.554 115.579 104.726 119.935C108.898 124.291 134.048 130.704 134.048 130.704L132.776 135.856C132.776 135.856 101.945 132.345 97.8469 126.853C93.749 121.362 88.0458 106.646 87.3209 99.3123C86.596 91.9787 90.2649 91.1269 91.9811 90.649Z" fill="#407BFF"/>
<path opacity="0.5" d="M91.9811 90.649C94.8955 89.8527 100.554 115.579 104.726 119.935C108.898 124.291 134.048 130.704 134.048 130.704L132.776 135.856C132.776 135.856 101.945 132.345 97.8469 126.853C93.749 121.362 88.0458 106.646 87.3209 99.3123C86.596 91.9787 90.2649 91.1269 91.9811 90.649Z" fill="white"/>
<path d="M118.359 112.394L110.237 111.881L110.814 107.636L118.943 108.149L118.359 112.394Z" fill="#407BFF"/>
<path opacity="0.5" d="M117.93 112.061L110.932 111.618L111.435 107.969L118.426 108.412L117.93 112.061Z" fill="white"/>
<path d="M115.119 106.48L114.335 108.53H115.644V106.48H115.119Z" fill="#263238"/>
<path d="M139.722 136.334L132.147 137.67C132.147 137.67 124.225 136.05 122.849 136.334C121.473 136.618 117.908 143.162 117.908 143.162C117.908 143.162 130.076 145.648 131.629 145.163C133.183 144.678 134.47 142.788 134.47 142.788L140.387 141.763L139.722 136.334Z" fill="#E4897B"/>
<path d="M155.182 102.768C151.601 107.802 156.802 128.224 157.127 129.519C157.452 130.814 135.794 136.299 135.794 136.299L138.915 145.239C138.915 145.239 165.907 142.324 168.903 139.311C171.899 136.299 168.526 111.535 168.526 111.535L155.211 102.768H155.182Z" fill="#407BFF"/>
<path opacity="0.4" d="M168.903 139.311C166.351 141.881 146.349 144.381 140.513 145.059L138.915 145.239L135.794 136.299L137.214 135.932C142.03 134.685 157.401 130.614 157.127 129.519C156.802 128.224 151.601 107.802 155.182 102.768L157.497 103.682L165.16 109.139L168.526 111.535C168.526 111.535 169.872 121.189 170.094 129.132C170.249 133.958 170.027 138.176 168.903 139.311Z" fill="black"/>
<path opacity="0.1" d="M140.513 145.059L138.915 145.239L135.794 136.299L137.214 135.932L140.513 145.059Z" fill="black"/>
<path opacity="0.2" d="M170.094 129.132C165.656 122.477 165.219 115.184 165.16 109.139L168.526 111.535C168.526 111.535 169.872 121.188 170.094 129.132Z" fill="black"/>
<path d="M106.605 250.812L111.783 171.776H153.702L158.88 250.812H162.579L155.877 149.214C155.715 146.904 154.63 144.736 152.836 143.142C151.043 141.548 148.674 140.645 146.202 140.613H119.424C116.93 140.619 114.532 141.511 112.714 143.109C110.896 144.707 109.794 146.891 109.63 149.221L102.973 250.812H106.605ZM113.262 149.436C113.364 147.984 114.05 146.623 115.184 145.628C116.317 144.633 117.811 144.078 119.365 144.076H146.202C147.753 144.08 149.245 144.634 150.376 145.628C151.507 146.621 152.194 147.98 152.297 149.429L153.539 168.314H112.042L113.262 149.436Z" fill="#407BFF"/>
<path d="M184 245.569L178.216 247.148L174.806 235.424L180.59 233.838L184 245.569Z" fill="#B97964"/>
<path d="M177.587 244.635H184.666C184.782 244.635 184.894 244.672 184.984 244.74C185.074 244.808 185.137 244.903 185.162 245.009L186.308 249.856C186.355 250.064 186.312 250.281 186.188 250.46C186.065 250.639 185.872 250.765 185.65 250.812C185.586 250.819 185.522 250.819 185.458 250.812C183.172 250.777 181.515 250.646 178.645 250.646C176.877 250.646 171.551 250.819 169.11 250.819C166.669 250.819 166.351 248.568 167.35 248.36C171.832 247.446 175.198 246.179 176.633 244.974C176.894 244.752 177.235 244.631 177.587 244.635Z" fill="#263238"/>
<path opacity="0.2" d="M180.59 233.838L174.806 235.424L176.566 241.47L182.358 239.891L180.59 233.838Z" fill="black"/>
<path d="M202.811 133.356C204.391 140.818 205.048 148.426 204.771 156.028C204.254 168.224 174.813 183.362 174.251 187.621C173.689 191.88 183.313 236.415 183.313 236.415L173.156 239.794C173.156 239.794 153.088 199.476 152.859 189.608C152.63 179.74 174.813 156.028 180.864 149.491C183.216 146.95 180.901 136.721 180.901 136.721L202.811 133.356Z" fill="#263238"/>
<path opacity="0.3" d="M204.771 156.029C204.587 160.44 200.614 165.232 195.592 169.761C187.625 176.977 176.922 183.514 174.673 186.713C174.461 186.982 174.317 187.292 174.251 187.621C173.696 191.886 183.313 236.415 183.313 236.415L173.156 239.787C173.156 239.787 153.088 199.476 152.859 189.608C152.63 179.74 174.813 156.029 180.864 149.491C183.216 146.95 180.901 136.721 180.901 136.721L202.819 133.349C204.395 140.814 205.051 148.424 204.771 156.029Z" fill="white"/>
<path d="M172.528 241.456L184.896 237.53L183.875 234.302L170.959 238.167L172.528 241.456Z" fill="#407BFF"/>
<path opacity="0.6" d="M172.528 241.456L184.896 237.53L183.875 234.302L170.959 238.167L172.528 241.456Z" fill="white"/>
<path opacity="0.2" d="M195.592 169.761C187.625 176.977 176.922 183.514 174.673 186.713C175.102 172.372 193.594 157.109 193.594 157.109L195.592 169.761Z" fill="black"/>
<path d="M212.013 245.569L206.229 247.148L202.811 235.424L208.603 233.838L212.013 245.569Z" fill="#B97964"/>
<path d="M205.6 244.635H212.657C212.772 244.635 212.884 244.673 212.974 244.74C213.064 244.808 213.127 244.903 213.152 245.009L214.299 249.856C214.345 250.065 214.301 250.283 214.176 250.462C214.051 250.641 213.856 250.767 213.633 250.812C213.572 250.819 213.51 250.819 213.448 250.812C211.163 250.777 209.498 250.646 206.636 250.646C204.868 250.646 199.534 250.819 197.101 250.819C194.667 250.819 194.342 248.568 195.34 248.36C199.815 247.446 203.189 246.179 204.624 244.974C204.89 244.747 205.24 244.626 205.6 244.635Z" fill="#263238"/>
<path opacity="0.2" d="M208.603 233.838L202.811 235.424L204.579 241.47L210.364 239.891L208.603 233.838Z" fill="black"/>
<path d="M214.314 130.884C217.599 137.884 219.193 145.477 218.981 153.12C218.463 165.308 202.826 183.355 202.264 187.614C201.702 191.873 211.296 236.415 211.296 236.415L201.132 239.794C201.132 239.794 181.064 199.476 180.827 189.608C180.59 179.74 193.565 157.109 193.565 157.109L190.865 134.672L214.314 130.884Z" fill="#263238"/>
<path opacity="0.3" d="M214.314 130.884C217.599 137.884 219.193 145.477 218.981 153.12C218.463 165.308 202.826 183.355 202.264 187.614C201.702 191.873 211.296 236.415 211.296 236.415L201.132 239.794C201.132 239.794 181.064 199.476 180.827 189.608C180.59 179.74 193.565 157.109 193.565 157.109L190.865 134.672L214.314 130.884Z" fill="white"/>
<path d="M200.533 241.456L212.908 237.53L211.88 234.302L198.972 238.167L200.533 241.456Z" fill="#407BFF"/>
<path opacity="0.6" d="M200.533 241.456L212.908 237.53L211.88 234.302L198.972 238.167L200.533 241.456Z" fill="white"/>
<path d="M219.018 145.225C219.018 145.225 183.719 150.211 180.213 147.559C175.035 143.653 169.317 110.981 155.182 102.768C156.636 100.585 158.403 98.6002 160.433 96.8677C164.816 92.9962 170.113 90.1488 175.893 88.5577C180.291 87.3665 184.861 86.8268 189.437 86.958C189.437 86.958 217.147 105.392 219.018 145.225Z" fill="#407BFF"/>
<path opacity="0.3" d="M219.018 145.225C219.018 145.225 183.719 150.211 180.213 147.559C179.833 147.254 179.503 146.897 179.237 146.5C174.296 139.665 168.437 110.489 155.182 102.768C156.636 100.585 158.403 98.6002 160.433 96.8677L161.025 96.3553C165.294 92.7502 170.376 90.0921 175.893 88.5784C176.182 88.4953 176.478 88.4191 176.774 88.3499C180.9 87.3122 185.167 86.8456 189.437 86.9649C189.437 86.9649 195.614 91.0715 202.33 99.5962C206.354 104.716 209.699 110.274 212.294 116.147C215.926 124.427 218.126 133.195 218.811 142.123C218.9 143.155 218.966 144.18 219.018 145.225Z" fill="black"/>
<path opacity="0.1" d="M176.774 88.3499C175.658 93.6994 173.973 98.9308 171.744 103.966C171.744 103.966 164.502 101.459 161.025 96.3484C165.294 92.7433 170.376 90.0852 175.893 88.5715C176.182 88.4953 176.478 88.4192 176.774 88.3499Z" fill="black"/>
<path opacity="0.1" d="M219.018 145.225C219.018 145.225 183.719 150.211 180.213 147.559C179.832 147.254 179.503 146.897 179.237 146.5C192.583 146.816 205.909 145.347 218.811 142.137C218.9 143.155 218.966 144.18 219.018 145.225Z" fill="black"/>
<path opacity="0.2" d="M212.294 116.161C199.919 113.107 193.484 100.074 193.484 100.074L202.36 99.61C206.373 104.731 209.709 110.289 212.294 116.161Z" fill="black"/>
<path d="M175.05 89.0632C172.905 96.3899 169.791 97.6503 167.35 97.2209C165.904 96.8807 164.592 96.1597 163.57 95.1434C163.823 94.7067 163.94 94.2127 163.91 93.7168C163.862 93.1748 163.684 92.6497 163.391 92.18C163.098 91.7103 162.697 91.3079 162.216 91.0022C161.747 90.663 161.252 90.3552 160.737 90.0812L160.892 88.1975L161.632 79.2573C162.992 81.2049 164.502 83.0565 166.151 84.7973C166.706 85.3652 167.291 85.9192 167.89 86.4247C170.131 88.343 172.631 89.6241 175.05 89.0632Z" fill="#E4897B"/>
<path opacity="0.2" d="M167.342 97.2209C165.896 96.8807 164.585 96.1597 163.562 95.1434C163.815 94.7067 163.933 94.2127 163.903 93.7168C163.854 93.1747 163.677 92.6497 163.384 92.18C163.091 91.7103 162.689 91.3079 162.209 91.0022C161.739 90.663 161.245 90.3552 160.729 90.0812L160.885 88.1975L167.89 86.4109C167.89 86.4109 169.643 92.9758 167.342 97.2209Z" fill="black"/>
<path d="M149.841 78.8972C149.841 78.8972 147.748 78.6894 147.407 81.2378C147.067 83.7863 147.992 83.8347 147.992 83.8347C147.992 83.8347 147.252 85.9677 148.169 86.5701C149.086 87.1726 149.841 89.721 149.841 89.721L151.912 86.1616L149.841 78.8972Z" fill="#263238"/>
<path opacity="0.6" d="M149.841 78.8972C149.841 78.8972 147.748 78.6894 147.407 81.2378C147.067 83.7863 147.992 83.8347 147.992 83.8347C147.992 83.8347 147.252 85.9677 148.169 86.5701C149.086 87.1726 149.841 89.721 149.841 89.721L151.912 86.1616L149.841 78.8972Z" fill="white"/>
<path d="M166.011 91.9855C165.864 92.2719 165.699 92.5495 165.515 92.8165C164.635 94.2109 163.288 95.2949 161.684 95.9008C160.079 96.5067 158.306 96.6007 156.639 96.1683C154.468 95.6555 152.589 94.3844 151.387 92.6157C151.212 92.374 151.054 92.1218 150.913 91.8609C150.64 91.3346 150.366 90.7598 150.122 90.1435C148.14 85.1782 146.083 78.3709 152.496 74.7837C156.535 72.5053 163.318 72.2214 165.737 76.0233C166.623 77.41 167.194 78.9526 167.416 80.555C167.637 82.1574 167.504 83.7854 167.024 85.3375C167.394 87.2903 167.757 88.7031 166.011 91.9855Z" fill="#E4897B"/>
<path d="M168.666 80.6838C168.666 80.6838 169.739 80.6354 169.303 79.2988C168.866 77.9623 167.032 77.0897 167.032 77.0897C167.032 77.0897 168.511 76.1756 166.573 75.31C165.583 74.8859 164.46 74.8218 163.422 75.13C162.778 74.6244 157.127 70.3794 153.288 72.907C153.254 72.9349 153.232 72.9735 153.226 73.0155C153.22 73.0575 153.231 73.1001 153.257 73.1351C153.282 73.17 153.321 73.195 153.365 73.2053C153.408 73.2156 153.455 73.2105 153.495 73.1909C156.846 70.9888 161.898 74.4444 163.008 75.2685L162.727 75.3931C161.573 74.9083 153.073 71.4943 150.218 75.5039C150.204 75.5229 150.195 75.5443 150.19 75.5669C150.185 75.5895 150.185 75.6127 150.19 75.6353C150.194 75.6578 150.204 75.6793 150.218 75.6983C150.232 75.7174 150.249 75.7337 150.27 75.7463C150.29 75.7591 150.312 75.768 150.335 75.7725C150.359 75.777 150.383 75.7769 150.407 75.7724C150.43 75.7679 150.453 75.7589 150.472 75.7461C150.492 75.7333 150.509 75.7168 150.521 75.6978C153.029 72.1799 160.567 74.9083 162.32 75.6078C162.129 75.7183 161.948 75.8434 161.78 75.9817C160.019 75.5316 154.442 74.2989 151.098 75.9817C150.529 76.2598 150.028 76.6471 149.629 77.1184C149.23 77.5898 148.942 78.1345 148.783 78.7171C148.776 78.7385 148.774 78.7609 148.777 78.783C148.78 78.8052 148.787 78.8266 148.799 78.8459C148.811 78.8653 148.826 78.8823 148.845 78.8959C148.864 78.9094 148.886 78.9193 148.909 78.9249H148.961C149.001 78.9249 149.04 78.9127 149.072 78.8903C149.104 78.8678 149.127 78.8362 149.138 78.8002C149.287 78.2636 149.554 77.762 149.922 77.3278C150.29 76.8937 150.751 76.5366 151.276 76.2795C154.331 74.7214 159.546 75.7671 161.469 76.238C161.161 76.5651 160.911 76.937 160.729 77.339C159.716 79.6243 161.358 80.4899 162.431 81.6395C163.503 82.7891 163.008 84.6865 162.993 84.7489C162.483 85.8661 161.709 86.8606 160.729 87.6574C160.044 87.396 159.277 87.396 158.592 87.6574C157.663 88.0545 156.919 88.7532 156.498 89.6241C153.251 89.3055 152.726 91.7916 152.726 91.7916C151.304 90.8184 150.171 89.5218 149.434 88.0244C149.109 90.7944 150.174 93.6891 151.217 94.8733C152.26 96.0575 152.777 94.8733 152.777 94.8733C152.777 94.8733 153.022 97.2001 154.412 98.0727C155.803 98.9452 156.291 97.8857 156.291 97.8857C156.291 97.8857 157.031 99.3469 159.657 99.9632C162.283 100.58 163.119 97.0408 163.119 97.0408C165.996 99.1184 165.752 94.2085 165.752 94.2085C165.752 94.2085 167.165 94.5755 167.032 92.1794C166.921 90.3097 165.145 86.6948 164.361 85.1782C165.53 85.0051 167.32 87.505 167.32 87.505C172.372 87.9482 168.666 80.6838 168.666 80.6838Z" fill="#263238"/>
<path opacity="0.6" d="M168.666 80.6838C168.666 80.6838 169.739 80.6354 169.303 79.2988C168.866 77.9623 167.032 77.0897 167.032 77.0897C167.032 77.0897 168.511 76.1756 166.573 75.31C165.583 74.8859 164.46 74.8218 163.422 75.13C162.778 74.6244 157.127 70.3794 153.288 72.907C153.254 72.9349 153.232 72.9735 153.226 73.0155C153.22 73.0575 153.231 73.1001 153.257 73.1351C153.282 73.17 153.321 73.195 153.365 73.2053C153.408 73.2156 153.455 73.2105 153.495 73.1909C156.846 70.9888 161.898 74.4444 163.008 75.2685L162.727 75.3931C161.573 74.9083 153.073 71.4943 150.218 75.5039C150.204 75.5229 150.195 75.5443 150.19 75.5669C150.185 75.5895 150.185 75.6127 150.19 75.6353C150.194 75.6578 150.204 75.6793 150.218 75.6983C150.232 75.7174 150.249 75.7337 150.27 75.7463C150.29 75.7591 150.312 75.768 150.335 75.7725C150.359 75.777 150.383 75.7769 150.407 75.7724C150.43 75.7679 150.453 75.7589 150.472 75.7461C150.492 75.7333 150.509 75.7168 150.521 75.6978C153.029 72.1799 160.567 74.9083 162.32 75.6078C162.129 75.7183 161.948 75.8434 161.78 75.9817C160.019 75.5316 154.442 74.2989 151.098 75.9817C150.529 76.2598 150.028 76.6471 149.629 77.1184C149.23 77.5898 148.942 78.1345 148.783 78.7171C148.776 78.7385 148.774 78.7609 148.777 78.783C148.78 78.8052 148.787 78.8266 148.799 78.8459C148.811 78.8653 148.826 78.8823 148.845 78.8959C148.864 78.9094 148.886 78.9193 148.909 78.9249H148.961C149.001 78.9249 149.04 78.9127 149.072 78.8903C149.104 78.8678 149.127 78.8362 149.138 78.8002C149.287 78.2636 149.554 77.762 149.922 77.3278C150.29 76.8937 150.751 76.5366 151.276 76.2795C154.331 74.7214 159.546 75.7671 161.469 76.238C161.161 76.5651 160.911 76.937 160.729 77.339C159.716 79.6243 161.358 80.4899 162.431 81.6395C163.503 82.7891 163.008 84.6865 162.993 84.7489C162.483 85.8661 161.709 86.8606 160.729 87.6574C160.044 87.396 159.277 87.396 158.592 87.6574C157.663 88.0545 156.919 88.7532 156.498 89.6241C153.251 89.3055 152.726 91.7916 152.726 91.7916C151.304 90.8184 150.171 89.5218 149.434 88.0244C149.109 90.7944 150.174 93.6891 151.217 94.8733C152.26 96.0575 152.777 94.8733 152.777 94.8733C152.777 94.8733 153.022 97.2001 154.412 98.0727C155.803 98.9452 156.291 97.8857 156.291 97.8857C156.291 97.8857 157.031 99.3469 159.657 99.9632C162.283 100.58 163.119 97.0408 163.119 97.0408C165.996 99.1184 165.752 94.2085 165.752 94.2085C165.752 94.2085 167.165 94.5755 167.032 92.1794C166.921 90.3097 165.145 86.6948 164.361 85.1782C165.53 85.0051 167.32 87.505 167.32 87.505C172.372 87.9482 168.666 80.6838 168.666 80.6838Z" fill="white"/>
<path d="M157.075 83.7101C157.223 84.1602 157.023 84.6034 156.698 84.6727C156.373 84.7419 156.017 84.4234 155.899 83.9802C155.781 83.537 155.958 83.0799 156.284 83.0106C156.609 82.9414 156.957 83.2392 157.075 83.7101Z" fill="#263238"/>
<path d="M151.468 84.922C151.55 85.0979 151.555 85.2964 151.483 85.4759C151.411 85.6554 151.268 85.8019 151.084 85.8846C150.758 85.9539 150.403 85.6353 150.285 85.1921C150.166 84.7489 150.344 84.2918 150.669 84.2226C150.995 84.1533 151.379 84.4857 151.468 84.922Z" fill="#263238"/>
<path d="M153.303 84.7627C153.064 86.3117 152.596 87.822 151.912 89.2502C152.31 89.4049 152.739 89.4764 153.17 89.4597C153.6 89.4429 154.022 89.3383 154.405 89.1532L153.303 84.7627Z" fill="#DE5753"/>
<path d="M158.399 81.6325C158.347 81.6504 158.292 81.6553 158.237 81.6468C158.183 81.6383 158.131 81.6167 158.089 81.5841C157.806 81.3524 157.47 81.1854 157.107 81.0965C156.743 81.0075 156.363 80.999 155.995 81.0716C155.921 81.0934 155.84 81.0866 155.771 81.0529C155.701 81.0192 155.649 80.9612 155.625 80.8916C155.604 80.8209 155.614 80.7453 155.651 80.6808C155.688 80.6162 155.75 80.5677 155.825 80.5453C156.287 80.4415 156.769 80.4433 157.23 80.5506C157.691 80.6579 158.117 80.8675 158.473 81.1616C158.534 81.2077 158.572 81.2744 158.581 81.347C158.589 81.4196 158.566 81.4924 158.518 81.5494C158.483 81.583 158.443 81.6111 158.399 81.6325Z" fill="#263238"/>
<path d="M148.606 83.627C148.557 83.6626 148.497 83.6799 148.435 83.6754C148.36 83.6589 148.294 83.6159 148.252 83.5554C148.209 83.4949 148.193 83.4214 148.206 83.35C148.301 82.914 148.506 82.5058 148.805 82.1599C149.103 81.8139 149.487 81.5404 149.922 81.3625C149.959 81.3493 149.998 81.3431 150.038 81.3443C150.077 81.3456 150.116 81.3542 150.152 81.3697C150.188 81.3852 150.22 81.4072 150.247 81.4345C150.273 81.4618 150.294 81.4938 150.307 81.5287C150.33 81.5986 150.324 81.674 150.291 81.7404C150.259 81.8068 150.201 81.8596 150.129 81.8888C149.789 82.0382 149.491 82.26 149.258 82.5366C149.026 82.8131 148.866 83.1367 148.79 83.4815C148.773 83.5171 148.748 83.5486 148.716 83.5738C148.684 83.5989 148.646 83.6171 148.606 83.627Z" fill="#263238"/>
<path opacity="0.6" d="M158.399 81.6325C158.347 81.6504 158.292 81.6553 158.237 81.6468C158.183 81.6383 158.131 81.6167 158.089 81.5841C157.806 81.3524 157.47 81.1854 157.107 81.0965C156.743 81.0075 156.363 80.999 155.995 81.0716C155.921 81.0934 155.84 81.0866 155.771 81.0529C155.701 81.0192 155.649 80.9612 155.625 80.8916C155.604 80.8209 155.614 80.7453 155.651 80.6808C155.688 80.6162 155.75 80.5677 155.825 80.5453C156.287 80.4415 156.769 80.4433 157.23 80.5506C157.691 80.6579 158.117 80.8675 158.473 81.1616C158.534 81.2077 158.572 81.2744 158.581 81.347C158.589 81.4196 158.566 81.4924 158.518 81.5494C158.483 81.583 158.443 81.6111 158.399 81.6325Z" fill="white"/>
<path opacity="0.6" d="M148.606 83.627C148.557 83.6626 148.497 83.6799 148.435 83.6754C148.36 83.6589 148.294 83.6159 148.252 83.5554C148.209 83.4949 148.193 83.4214 148.206 83.35C148.301 82.914 148.506 82.5058 148.805 82.1599C149.103 81.8139 149.487 81.5404 149.922 81.3625C149.959 81.3493 149.998 81.3431 150.038 81.3443C150.077 81.3456 150.116 81.3542 150.152 81.3697C150.188 81.3852 150.22 81.4072 150.247 81.4345C150.273 81.4618 150.294 81.4938 150.307 81.5287C150.33 81.5986 150.324 81.674 150.291 81.7404C150.259 81.8068 150.201 81.8596 150.129 81.8888C149.789 82.0382 149.491 82.26 149.258 82.5366C149.026 82.8131 148.866 83.1367 148.79 83.4815C148.773 83.5171 148.748 83.5486 148.716 83.5738C148.684 83.5989 148.646 83.6171 148.606 83.627Z" fill="white"/>
<path opacity="0.2" d="M153.354 92.595C153.354 92.595 153.894 93.1005 154.619 92.3249C154.619 92.3249 155.648 93.8276 156.72 90.4967C156.72 90.4967 159.59 91.0368 160.374 90.4967C160.914 90.1297 160.374 89.4649 160.374 89.4649C160.374 89.4649 161.55 89.3541 161.854 88.5369C161.854 88.5369 162.786 91.7986 157.415 91.1823C157.401 91.1823 155.677 94.7002 153.354 92.595Z" fill="black"/>
<path d="M169.754 84.2156C169.578 84.9278 169.254 85.6004 168.799 86.1946C168.345 86.7889 167.769 87.2931 167.106 87.6782C165.33 88.7031 163.866 87.3388 163.873 85.4898C163.873 83.8417 164.835 81.2725 166.832 81.0232C168.829 80.7739 170.168 82.4497 169.754 84.2156Z" fill="#E4897B"/>
<path opacity="0.2" d="M155.862 84.4857C155.862 84.4857 156.143 85.8153 157.844 85.3998" stroke="black" stroke-width="0.5" stroke-linecap="round" stroke-linejoin="round"/>
<path opacity="0.2" d="M151.727 85.5106C151.727 85.5106 151.69 87.0895 150.521 86.9649" stroke="black" stroke-width="0.5" stroke-linecap="round" stroke-linejoin="round"/>
<path opacity="0.2" d="M149.619 80.4622C151.314 79.5787 153.245 79.17 155.182 79.285" stroke="black" stroke-width="0.5" stroke-linecap="round" stroke-linejoin="round"/>
<path opacity="0.2" d="M149.619 79.6382C150.352 78.998 151.25 78.5477 152.226 78.3316C153.201 78.1154 154.22 78.1409 155.182 78.4055" stroke="black" stroke-width="0.5" stroke-linecap="round" stroke-linejoin="round"/>
<path opacity="0.2" d="M150.329 78.1701C151.046 77.6675 151.883 77.3377 152.768 77.2097C153.653 77.0816 154.558 77.1594 155.403 77.436" stroke="black" stroke-width="0.5" stroke-linecap="round" stroke-linejoin="round"/>
<path d="M221.267 125.69L217.568 129.519C217.568 129.519 214.95 131.001 214.794 131.846C214.639 132.691 218.049 143.653 218.049 143.653C218.049 143.653 222.687 140.316 222.539 139.311C222.391 138.307 220.202 133.349 220.202 133.349L224.278 129.796L221.267 125.69Z" fill="#E4897B"/>
<path d="M189.437 86.9787C189.437 86.9787 221.925 89.0563 233.923 102.041C245.921 115.025 222.51 133.349 222.51 133.349L218.286 126.625C218.286 126.625 227.784 117.622 224.27 111.535C220.757 105.448 202.819 105.96 202.819 105.96C202.819 105.96 185.339 99.2153 189.437 86.9787Z" fill="#407BFF"/>
<path opacity="0.4" d="M224.248 131.881C223.183 132.823 222.51 133.349 222.51 133.349L218.286 126.625C218.286 126.625 218.648 126.285 219.203 125.69C221.489 123.238 227.103 116.459 224.27 111.535C220.757 105.427 202.819 105.96 202.819 105.96C202.819 105.96 185.347 99.2153 189.445 86.9787C189.445 86.9787 221.933 89.0563 233.931 102.034C243.887 112.816 229.433 127.283 224.248 131.881Z" fill="black"/>
<path opacity="0.1" d="M224.248 131.881C223.183 132.823 222.51 133.349 222.51 133.349L218.286 126.625C218.286 126.625 218.648 126.285 219.203 125.69L224.248 131.881Z" fill="black"/>
<path d="M154.442 157.49H111.872C111.381 157.49 110.911 157.307 110.564 156.983C110.217 156.658 110.022 156.218 110.022 155.758C110.022 155.299 110.217 154.859 110.564 154.534C110.911 154.21 111.381 154.027 111.872 154.027H154.442C154.932 154.027 155.403 154.21 155.749 154.534C156.096 154.859 156.291 155.299 156.291 155.758C156.291 156.218 156.096 156.658 155.749 156.983C155.403 157.307 154.932 157.49 154.442 157.49Z" fill="#407BFF"/>
<g opacity="0.2">
<path d="M154.442 157.49H111.872C111.381 157.49 110.911 157.307 110.564 156.983C110.217 156.658 110.022 156.218 110.022 155.758C110.022 155.299 110.217 154.859 110.564 154.534C110.911 154.21 111.381 154.027 111.872 154.027H154.442C154.932 154.027 155.403 154.21 155.749 154.534C156.096 154.859 156.291 155.299 156.291 155.758C156.291 156.218 156.096 156.658 155.749 156.983C155.403 157.307 154.932 157.49 154.442 157.49Z" fill="white"/>
</g>
<path d="M150.743 210.085H108.173C107.683 210.085 107.212 209.903 106.866 209.578C106.519 209.254 106.324 208.813 106.324 208.354C106.324 207.895 106.519 207.455 106.866 207.13C107.212 206.805 107.683 206.623 108.173 206.623H150.743C151.234 206.623 151.704 206.805 152.051 207.13C152.398 207.455 152.593 207.895 152.593 208.354C152.593 208.813 152.398 209.254 152.051 209.578C151.704 209.903 151.234 210.085 150.743 210.085Z" fill="#407BFF"/>
<g opacity="0.2">
<path d="M150.743 210.085H108.173C107.683 210.085 107.212 209.903 106.866 209.578C106.519 209.254 106.324 208.813 106.324 208.354C106.324 207.895 106.519 207.455 106.866 207.13C107.212 206.805 107.683 206.623 108.173 206.623H150.743C151.234 206.623 151.704 206.805 152.051 207.13C152.398 207.455 152.593 207.895 152.593 208.354C152.593 208.813 152.398 209.254 152.051 209.578C151.704 209.903 151.234 210.085 150.743 210.085Z" fill="white"/>
</g>
<path d="M150.248 250.812L155.426 171.776H197.345L202.56 250.812H206.258L199.557 149.214C199.394 146.898 198.304 144.725 196.502 143.13C194.701 141.535 192.323 140.636 189.844 140.613H163.067C160.573 140.619 158.175 141.511 156.356 143.109C154.538 144.707 153.436 146.891 153.273 149.221L146.616 250.812H150.248ZM156.905 149.436C157.006 147.984 157.693 146.623 158.826 145.628C159.959 144.633 161.454 144.078 163.008 144.076H189.844C191.395 144.08 192.887 144.634 194.019 145.628C195.15 146.621 195.836 147.98 195.939 149.429L197.182 168.314H155.685L156.905 149.436Z" fill="#407BFF"/>
<path opacity="0.2" d="M150.248 250.812L155.426 171.776H197.345L202.56 250.812H206.258L199.557 149.214C199.394 146.898 198.304 144.725 196.502 143.13C194.701 141.535 192.323 140.636 189.844 140.613H163.067C160.573 140.619 158.175 141.511 156.356 143.109C154.538 144.707 153.436 146.891 153.273 149.221L146.616 250.812H150.248ZM156.905 149.436C157.006 147.984 157.693 146.623 158.826 145.628C159.959 144.633 161.454 144.078 163.008 144.076H189.844C191.395 144.08 192.887 144.634 194.019 145.628C195.15 146.621 195.836 147.98 195.939 149.429L197.182 168.314H155.685L156.905 149.436Z" fill="white"/>
</svg>
